HIERARCHY
ROOT root
{
	OFFSET 0.000000 0.000000 0.000000
	CHANNELS 6 Xposition Yposition Zposition Zrotation Yrotation Xrotation
	JOINT lhip
	{
		OFFSET 0.058581 -0.082280 -0.017664
		CHANNELS 3 Zrotation Yrotation Xrotation
		JOINT lknee
		{
			OFFSET 0.043451 -0.386469 0.008037
			CHANNELS 3 Zrotation Yrotation Xrotation
			JOINT lankle
			{
				OFFSET -0.014790 -0.426874 -0.037428
				CHANNELS 3 Zrotation Yrotation Xrotation
				JOINT ltoe
				{
					OFFSET 0.041054 -0.060286 0.122042
					CHANNELS 3 Zrotation Yrotation Xrotation
					End Site
					{
						OFFSET 0.000000 0.000000 0.000000
					}
				}
			}
		}
	}
	JOINT rhip
	{
		OFFSET -0.060310 -0.090513 -0.013543
		CHANNELS 3 Zrotation Yrotation Xrotation
		JOINT rknee
		{
			OFFSET -0.043257 -0.383688 -0.004843
			CHANNELS 3 Zrotation Yrotation Xrotation
			JOINT rankle
			{
				OFFSET 0.019056 -0.420046 -0.034562
				CHANNELS 3 Zrotation Yrotation Xrotation
				JOINT rtoe
				{
					OFFSET -0.034840 -0.062106 0.130323
					CHANNELS 3 Zrotation Yrotation Xrotation
					End Site
					{
						OFFSET 0.000000 0.000000 0.000000
					}
				}
			}
		}
	}
	JOINT lowerback
	{
		OFFSET 0.004439 0.124404 -0.038385
		CHANNELS 3 Zrotation Yrotation Xrotation
		JOINT upperback
		{
			OFFSET 0.004488 0.137956 0.026820
			CHANNELS 3 Zrotation Yrotation Xrotation
			JOINT chest
			{
				OFFSET -0.002265 0.056032 0.002855
				CHANNELS 3 Zrotation Yrotation Xrotation
				JOINT lowerneck
				{
					OFFSET -0.013390 0.211636 -0.033468
					CHANNELS 3 Zrotation Yrotation Xrotation
					JOINT upperneck
					{
						OFFSET 0.010113 0.088937 0.050410
						CHANNELS 3 Zrotation Yrotation Xrotation
						End Site
						{
							OFFSET 0.000000 0.000000 0.000000
						}
					}
				}
				JOINT lclavicle
				{
					OFFSET 0.071702 0.114000 -0.018898
					CHANNELS 3 Zrotation Yrotation Xrotation
					JOINT lshoulder
					{
						OFFSET 0.122921 0.045205 -0.019046
						CHANNELS 3 Zrotation Yrotation Xrotation
						JOINT lelbow
						{
							OFFSET 0.255332 -0.015649 -0.022946
							CHANNELS 3 Zrotation Yrotation Xrotation
							JOINT lwrist
							{
								OFFSET 0.265709 0.012698 -0.007375
								CHANNELS 3 Zrotation Yrotation Xrotation
								End Site
								{
									OFFSET 0.000000 0.000000 0.000000
								}
							}
						}
					}
				}
				JOINT rclavicle
				{
					OFFSET -0.082954 0.112472 -0.023707
					CHANNELS 3 Zrotation Yrotation Xrotation
					JOINT rshoulder
					{
						OFFSET -0.113228 0.046853 -0.008472
						CHANNELS 3 Zrotation Yrotation Xrotation
						JOINT relbow
						{
							OFFSET -0.260127 -0.014369 -0.031269
							CHANNELS 3 Zrotation Yrotation Xrotation
							JOINT rwrist
							{
								OFFSET -0.269108 0.006794 -0.006027
								CHANNELS 3 Zrotation Yrotation Xrotation
								End Site
								{
									OFFSET 0.000000 0.000000 0.000000
								}
							}
						}
					}
				}
			}
		}
	}
}
MOTION
Frames: 8
Frame Time: 0.033333
2.325654 0.701839 0.996035 -76.873569 -1.226122 84.853380 -3.468444 -3.688915 3.882920 0.405669 -13.430346 2.147859 4.192806 8.826880 -10.567863 0.000000 -0.000000 0.000000 1.658409 -4.685982 3.763111 -3.748303 -1.935479 7.453541 0.590160 -11.286972 -14.620252 0.000000 -0.000000 0.000000 -0.118932 5.832274 6.588932 -1.690399 -2.268992 7.339027 0.041468 0.295438 -4.346287 -1.673752 24.832442 0.318650 1.043790 25.516200 -2.751090 -24.878396 -7.691978 -0.152267 -52.649731 -6.703346 12.348113 -1.228118 -24.806224 1.213758 -24.374963 -3.588772 -6.883300 21.555083 8.929993 5.158947 60.969432 4.029426 15.938129 -9.219917 25.363546 -6.432203 22.860536 4.659309 -13.711858 
2.324592 0.703074 0.993777 -76.592260 -1.652126 84.952412 -3.771280 -3.619943 3.679295 0.242554 -13.860660 2.245920 3.168007 8.794463 -10.338690 0.000000 -0.000000 0.000000 1.444705 -3.158050 3.711661 -3.845878 -2.843229 7.600952 0.724007 -12.081847 -14.625594 0.000000 -0.000000 0.000000 -1.023324 5.298088 6.209955 -1.607189 -1.666777 7.091441 0.050144 0.379413 -3.894930 -0.509615 25.279711 0.061072 1.092625 25.122989 -1.621446 -25.473267 -7.998341 -0.034980 -52.380878 -6.523829 13.778961 -1.424974 -23.595589 8.259967 -14.896477 -3.425652 1.734231 22.867676 8.499390 5.628189 59.896435 3.240952 17.525356 -5.109563 25.653597 3.986315 13.066859 4.273247 -1.707123 
2.324455 0.704609 0.991138 -76.452301 -1.936195 84.982178 -3.914236 -3.421131 3.543993 0.043624 -14.421102 2.316676 2.229427 8.595134 -10.138905 0.000000 -0.000000 0.000000 1.196992 -2.489126 3.652865 -3.856007 -3.279384 7.619420 0.955585 -12.510324 -14.606226 0.000000 -0.000000 0.000000 -1.456136 4.952691 6.433113 -1.649112 -1.293696 6.479995 0.089847 0.379036 -3.549731 0.116982 25.434605 -0.227576 1.043152 25.098712 -0.879348 -25.955379 -8.240166 -0.069749 -52.311140 -6.332650 14.754996 -1.045357 -23.222704 11.914730 -8.496062 -3.419541 6.107778 23.712906 8.188302 5.781144 59.139198 2.953592 18.376477 -2.813783 25.499921 9.349452 6.727758 4.025062 4.654971 
2.324641 0.705254 0.990505 -76.400103 -2.002105 84.938536 -3.917960 -3.401737 3.618546 0.031091 -14.445781 2.262360 2.320876 8.479326 -10.315435 0.000000 -0.000000 0.000000 1.102840 -2.577625 3.777902 -3.779109 -3.250976 7.419559 0.959136 -12.377368 -14.387882 0.000000 -0.000000 0.000000 -1.419884 4.979999 6.628511 -1.689145 -1.301547 6.329840 0.053191 0.352746 -3.576367 0.129581 25.242346 -0.551128 1.093850 25.110907 -0.683311 -26.074312 -8.307021 -0.067688 -52.419112 -6.389838 14.794535 -0.732053 -22.967282 11.982449 -8.256324 -3.611570 6.177435 23.695039 8.178229 5.814802 59.098591 3.123835 18.337363 -2.556748 25.343401 9.614338 6.507768 4.134884 4.931950 
2.324821 0.705563 0.990303 -76.372107 -2.051809 84.923508 -3.956844 -3.382146 3.606334 -0.018071 -14.538230 2.328707 2.321779 8.481077 -10.352842 0.000000 -0.000000 0.000000 1.043172 -2.586764 3.809034 -3.721195 -3.198056 7.354857 0.992026 -12.431196 -14.338273 0.000000 -0.000000 0.000000 -1.449949 4.938620 6.753199 -1.697669 -1.293620 6.213227 0.034500 0.456313 -3.588287 0.127459 25.133806 -0.777848 1.127821 25.146907 -0.499312 -26.083567 -8.261154 -0.193735 -52.547055 -6.442399 14.904786 -0.604233 -22.793895 12.166048 -8.091767 -3.627997 6.366541 23.622267 8.076005 5.689111 59.142528 3.079332 18.394885 -2.418311 25.307446 9.905803 6.413776 4.071629 5.129618 
2.324605 0.705944 0.990514 -76.290128 -2.043375 84.803509 -3.914691 -3.303299 3.864680 0.045771 -14.548434 2.098927 2.219465 8.465047 -10.292076 0.000000 -0.000000 0.000000 1.114121 -2.687161 4.001927 -3.808451 -3.200410 7.256345 1.033748 -12.433682 -14.308110 0.000000 -0.000000 0.000000 -1.429318 4.905212 6.877110 -1.719649 -1.309842 6.112036 0.055333 0.456634 -3.566439 0.116583 25.116583 -0.754725 1.201963 25.232197 -0.496103 -26.167881 -8.351834 -0.065230 -52.443307 -6.419520 14.845409 -0.575189 -22.832160 12.115536 -8.024740 -3.718857 6.104490 23.596414 8.203329 5.752321 59.147167 3.150506 18.387766 -2.389391 25.204436 9.668482 6.469314 4.089003 4.697275 
2.324737 0.706267 0.990577 -76.251701 -2.039231 84.931665 -3.916714 -3.350768 3.570815 0.035585 -14.539548 2.401998 2.259382 8.392451 -10.337413 0.000000 -0.000000 0.000000 1.147128 -2.721371 3.822932 -3.813855 -3.213083 7.317414 1.054881 -12.436429 -14.389687 0.000000 -0.000000 0.000000 -1.427282 4.949725 6.694172 -1.698957 -1.361070 6.334042 0.054277 0.428029 -3.759471 0.023567 25.119717 -0.844629 1.116350 25.140451 -0.519215 -26.085443 -8.362488 -0.140166 -52.517375 -6.340321 14.921880 -0.597097 -22.837561 12.022793 -7.994668 -3.750661 6.215016 23.625080 8.314664 5.827203 59.067760 3.144497 18.371725 -2.284860 25.145818 9.764339 6.278181 4.189135 5.055330 
2.324748 0.706725 0.990598 -76.170312 -2.015396 84.941953 -3.847783 -3.446347 3.600652 0.055620 -14.455598 2.275523 2.293762 8.426547 -10.426099 0.000000 -0.000000 0.000000 1.224976 -2.751871 3.806749 -3.857478 -3.278402 7.346258 1.048846 -12.415432 -14.374263 0.000000 -0.000000 0.000000 -1.433770 4.910923 6.671471 -1.702150 -1.378752 6.259463 0.068270 0.422861 -3.653272 0.028532 25.199533 -0.963168 1.102569 25.116124 -0.576790 -26.106610 -8.370729 -0.128963 -52.467748 -6.390254 14.710408 -0.544907 -22.969372 11.796531 -7.913278 -3.795357 5.968705 23.619901 8.405203 5.923490 59.047375 3.241520 18.407673 -2.199846 25.040731 9.986034 6.174032 4.166912 5.130343 
